<?xml version="1.0" encoding="UTF-8"?>
<svg id="Layer_2" data-name="Layer 2" xmlns="http://www.w3.org/2000/svg" viewBox="0 0 45.17 41.67">
  <defs>
    <style>
      .cls-1 {
        fill: #5252a3;
      }

      .cls-2 {
        fill: #b2b0d8;
      }
    </style>
  </defs>
  <g id="Layer_1-2" data-name="Layer 1">
    <g>
      <path class="cls-1" d="M34.87,3.49c-3.19-1.53-6.5-2.24-8.9-2.71h-.02c-.2-.05-.39-.08-.58-.12C16.41-1.06,5.53-.66.95,17.91c-2.57,10.45.07,17.65,7.87,21.4,3.09,1.48,7.42,2.36,12.04,2.36,4.88,0,10.07-.98,14.43-3.27,5.33-2.8,8.6-7.18,9.45-12.65,2.07-13.29-3.69-19.31-9.87-22.26ZM41.47,25.24c-.69,4.46-3.29,7.9-7.72,10.23-7.46,3.92-18.01,3.5-23.5.85-6.36-3.05-8.29-8.66-6.08-17.62C7.09,6.85,12.27,3.31,19.17,3.31c1.76,0,3.62.22,5.58.6,8.39,1.62,17.12,4.41,17.12,16.5,0,1.47-.13,3.07-.4,4.83Z"/>
      <path class="cls-2" d="M24.75,3.91c-1.96-.38-3.82-.6-5.58-.6-6.9,0-12.08,3.54-15,15.39-2.21,8.96-.28,14.57,6.08,17.62,5.49,2.65,16.04,3.07,23.5-.85,4.43-2.33,7.03-5.77,7.72-10.23.27-1.76.4-3.36.4-4.83,0-12.09-8.73-14.88-17.12-16.5ZM34.62,26.81c-.43.11-.88.16-1.33.16-1.39.26-2.69.82-3.67,1.61-1.16.95-1.82,2.41-1.7,3.83.04.58-.38,1.1-.96,1.18-.05,0-.1.01-.15.01-.52,0-.99-.38-1.08-.91-.32-1.76-1.07-3.49-4.45-4.7-2.47-.88-5.87.48-6.98,1.08-.52.28-1.17.1-1.47-.41-.3-.51-.15-1.16.35-1.48,2.34-1.53,3.94-4.01,4.27-6.64.32-2.53-.62-5.14-2.58-7.18l-.03-.03c-.42-.44-.41-1.13.03-1.56.44-.42,1.14-.41,1.56.03l.02.02c1.69,1.75,4.09,2.93,6.6,3.25,2.43.31,4.75-.08,6.77-1.14.16-.11.33-.2.51-.29.53-.25,1.17-.04,1.45.48.27.52.09,1.17-.42,1.47-.14.09-.29.17-.43.24-1.17.79-1.54,2.32-1.65,2.99-.17.98-.27,2.86.87,4.36.71.94,1.86,1.53,2.97,1.58.39-.06.77-.1,1.16-.12.58-.04,1.07.37,1.15.93.09.56-.26,1.09-.81,1.24Z"/>
      <path class="cls-1" d="M34.28,24.64c-.39.02-.77.06-1.16.12-1.11-.05-2.26-.64-2.97-1.58-1.14-1.5-1.04-3.38-.87-4.36.11-.67.48-2.2,1.65-2.99.14-.07.29-.15.43-.24.51-.3.69-.95.42-1.47-.28-.52-.92-.73-1.45-.48-.18.09-.35.18-.51.29-2.02,1.06-4.34,1.45-6.77,1.14-2.51-.32-4.91-1.5-6.6-3.25l-.02-.02c-.42-.44-1.12-.45-1.56-.03-.44.43-.45,1.12-.03,1.56l.03.03c1.96,2.04,2.9,4.65,2.58,7.18-.33,2.63-1.93,5.11-4.27,6.64-.5.32-.65.97-.35,1.48.3.51.95.69,1.47.41,1.11-.6,4.51-1.96,6.98-1.08,3.38,1.21,4.13,2.94,4.45,4.7.09.53.56.91,1.08.91.05,0,.1-.01.15-.01.58-.08,1-.6.96-1.18-.12-1.42.54-2.88,1.7-3.83.98-.79,2.28-1.35,3.67-1.61.45,0,.9-.05,1.33-.16.55-.15.9-.68.81-1.24-.08-.56-.57-.97-1.15-.93ZM28.23,26.87c-.7.57-1.28,1.27-1.71,2.05-.98-1.3-2.46-2.28-4.5-3.01-.84-.3-1.71-.42-2.58-.42-.55,0-1.1.05-1.62.14.97-1.46,1.61-3.11,1.82-4.82.19-1.52.03-3.06-.46-4.52,1.14.48,2.36.81,3.59.97,1.6.21,3.18.15,4.67-.16-.15.43-.26.88-.34,1.36-.38,2.3.07,4.45,1.29,6.06.4.52.87.97,1.4,1.33-.56.3-1.09.64-1.56,1.02Z"/>
    </g>
  </g>
</svg>