<?xml version="1.0" encoding="UTF-8"?>
<svg id="Layer_2" data-name="Layer 2" xmlns="http://www.w3.org/2000/svg" viewBox="0 0 45.18 41.67">
  <defs>
    <style>
      .cls-1 {
        fill: #5252a3;
      }

      .cls-2 {
        fill: #b2b0d8;
      }
    </style>
  </defs>
  <g id="Layer_1-2" data-name="Layer 1">
    <g>
      <path class="cls-1" d="M44.22,17.91C39.64-.66,28.76-1.06,19.8.66c-.18.04-.37.07-.57.11h-.01s-.01.01-.02.01c-2.4.47-5.71,1.18-8.91,2.71C4.99,6.03,0,10.82,0,20.53c0,1.6.14,3.34.43,5.22.85,5.47,4.12,9.85,9.46,12.65,4.35,2.29,9.54,3.27,14.42,3.27,4.62,0,8.96-.88,12.05-2.36,7.79-3.75,10.44-10.95,7.86-21.4ZM34.92,36.32c-5.49,2.65-16.03,3.07-23.49-.85-2.22-1.16-3.98-2.61-5.27-4.32-1.29-1.7-2.11-3.68-2.46-5.91C1.18,9.02,11.01,5.73,20.43,3.91c1.96-.38,3.82-.6,5.57-.6,6.9,0,12.08,3.54,15,15.39,2.22,8.96.28,14.57-6.08,17.62Z"/>
      <path class="cls-2" d="M41,18.7c-2.92-11.85-8.1-15.39-15-15.39-1.75,0-3.61.22-5.57.6C11.01,5.73,1.18,9.02,3.7,25.24c.35,2.23,1.17,4.21,2.46,5.91,1.29,1.71,3.05,3.16,5.27,4.32,7.46,3.92,18,3.5,23.49.85,6.36-3.05,8.3-8.66,6.08-17.62ZM32.34,28.66c-.3.51-.95.69-1.47.41-.04-.02-4.03-2.13-6.98-1.08-3.38,1.21-4.12,2.94-4.4,4.48-.1.53-.6,1.01-1.14,1.01-.04,0-.08,0-.11-.01-.59-.07-1.03-.48-.98-1.06.11-1.42-.54-2.88-1.71-3.83-.98-.79-2.27-1.35-3.67-1.61-.45,0-.89-.05-1.33-.16-.55-.15-.9-.68-.81-1.24.09-.56.62-.97,1.15-.93.39.02.78.06,1.16.12,1.11-.05,2.26-.64,2.98-1.58,1.14-1.51,1.03-3.38.87-4.36-.11-.67-.49-2.2-1.65-2.99-.15-.07-.3-.15-.44-.24-.51-.3-.69-.95-.42-1.47.28-.52.92-.73,1.45-.48.18.09.35.18.52.29,2.01,1.06,4.34,1.46,6.76,1.14,2.51-.32,4.91-1.5,6.6-3.25.01,0,.01-.01.01-.01.43-.45,1.13-.46,1.57-.04.44.43.45,1.12.03,1.56,0,0-.02.02-.02.03-1.96,2.04-2.91,4.65-2.59,7.18.33,2.63,1.93,5.11,4.28,6.64.49.32.65.97.34,1.48Z"/>
      <path class="cls-1" d="M32,27.18c-2.35-1.53-3.95-4.01-4.28-6.64-.32-2.53.63-5.14,2.59-7.18,0-.01.02-.03.02-.03.42-.44.41-1.13-.03-1.56-.44-.42-1.14-.41-1.57.04,0,0,0,.01-.01.01-1.69,1.75-4.09,2.93-6.6,3.25-2.42.32-4.75-.08-6.76-1.14-.17-.11-.34-.2-.52-.29-.53-.25-1.17-.04-1.45.48-.27.52-.09,1.17.42,1.47.14.09.29.17.44.24,1.16.79,1.54,2.32,1.65,2.99.16.98.27,2.85-.87,4.36-.72.94-1.87,1.53-2.98,1.58-.38-.06-.77-.1-1.16-.12-.53-.04-1.06.37-1.15.93-.09.56.26,1.09.81,1.24.44.11.88.16,1.33.16,1.4.26,2.69.82,3.67,1.61,1.17.95,1.82,2.41,1.71,3.83-.05.58.39.99.98,1.06.03.01.07.01.11.01.54,0,1.04-.48,1.14-1.01.28-1.54,1.02-3.27,4.4-4.48,2.95-1.05,6.94,1.06,6.98,1.08.52.28,1.17.1,1.47-.41.31-.51.15-1.16-.34-1.48ZM23.15,25.91c-2.02.72-3.5,1.7-4.49,3.03-.42-.78-1.01-1.5-1.72-2.07-.47-.38-.99-.72-1.56-1.02.53-.36,1.01-.81,1.4-1.33,1.22-1.61,1.68-3.76,1.29-6.07-.07-.47-.19-.92-.34-1.35,1.5.31,3.07.37,4.67.16,1.23-.16,2.45-.49,3.59-.97-.48,1.46-.65,3-.46,4.52.22,1.71.86,3.36,1.83,4.82-1.34-.21-2.83-.21-4.21.28Z"/>
    </g>
  </g>
</svg>