<?xml version="1.0" encoding="UTF-8"?>
<svg id="Layer_2" data-name="Layer 2" xmlns="http://www.w3.org/2000/svg" viewBox="0 0 38.31 34.38">
  <defs>
    <style>
      .cls-1 {
        fill: #b2b0d8;
      }
    </style>
  </defs>
  <g id="Layer_1-2" data-name="Layer 1">
    <path class="cls-1" d="M26.9,2.95c-2.84-1.56-5.89-2.95-9.15-2.95C13.39,0,8.66,2.48,3.6,10.37c-4.8,7.45-4.8,13.06-.01,17.65,4.1,3.93,13.44,7.38,21.4,6.08,4.86-.78,8.36-3.16,10.41-7.05,2.05-3.9,2.91-7.16,2.91-9.93,0-7.13-5.68-11.03-11.41-14.17ZM31.46,22.72c-.14.57-.7.92-1.27.83-7.53-1.39-11.35-1.44-13.87,3.96-.19.4-.59.63-1,.63-.16,0-.32-.03-.47-.1-.55-.26-.79-.91-.53-1.47.52-1.12.79-2.16.79-3.31s-.26-2.37-.78-3.86c-.6-1.76-1.67-4-3.48-5.64-.63-.37-1.22-.8-1.75-1.29-.42-.38-.48-1.01-.15-1.47.33-.45.95-.58,1.44-.3.63.36,1.21.78,1.73,1.23,1.43.77,3.12,1.13,4.73.96,2.1-.22,4-1.41,5.21-3.27.31-.48.94-.64,1.44-.37.51.27.72.88.5,1.4-.72,1.7-.42,3.83.89,6.33,1.64,3.1,5.79,4.41,5.83,4.43.55.17.88.75.74,1.31Z"/>
  </g>
</svg>