<?xml version="1.0" encoding="UTF-8"?>
<svg id="Layer_2" data-name="Layer 2" xmlns="http://www.w3.org/2000/svg" viewBox="0 0 45.69 41.08">
  <defs>
    <style>
      .cls-1 {
        fill: #a2d077;
      }

      .cls-2 {
        fill: #258842;
      }
    </style>
  </defs>
  <g id="Layer_1-2" data-name="Layer 1">
    <g>
      <path class="cls-2" d="M40.64,10.29c-1.32-1.92-2.77-3.55-4.18-4.71-.9-.74-1.83-1.47-2.79-2.14C27.42-.92,19.61-2.95,7.82,8.71-2.89,19.29-.28,27.11,2.23,30.82c1.18,1.75,3.03,3.41,5.33,4.87,0,0,.01.01.02.01.99.63,2.07,1.22,3.22,1.76h.01c3.41,1.63,7.38,2.82,11.43,3.33,1.47.19,2.91.29,4.31.29,2.94,0,5.67-.41,8.11-1.22s4.58-2.01,6.36-3.58c3.14-2.78,4.75-6.7,4.67-11.35-.09-5.24-2.29-10.6-5.05-14.64ZM38.83,33.8c-3.67,3.25-9.41,4.57-16.18,3.71-7.55-.96-14.98-4.55-17.68-8.54-4.28-6.34.45-13.24,5.17-17.91,5.73-5.65,10.19-7.68,13.98-7.68s7.12,2.19,10.23,4.75c3.86,3.18,7.92,10.36,8.03,16.86v.3c0,3.56-1.2,6.42-3.55,8.51Z"/>
      <path class="cls-1" d="M34.35,8.13c-3.11-2.56-6.3-4.75-10.23-4.75s-8.25,2.03-13.98,7.68C5.42,15.73.69,22.63,4.97,28.97c2.7,3.99,10.13,7.58,17.68,8.54,6.77.86,12.51-.46,16.18-3.71,2.35-2.09,3.55-4.95,3.55-8.51v-.3c-.11-6.5-4.17-13.68-8.03-16.86ZM27.66,12.29c-.2.57-.82.88-1.4.68-3.81-1.32-8.62.12-10.95,3.28-2.29,3.1-2.02,7.71.62,10.49.42.44.4,1.14-.04,1.56-.21.2-.49.3-.76.3-.29,0-.59-.12-.8-.35-3.41-3.59-3.75-9.31-.79-13.32,2.91-3.95,8.69-5.69,13.44-4.04.58.2.88.82.68,1.4Z"/>
      <path class="cls-2" d="M27.66,12.29c-.2.57-.82.88-1.4.68-3.81-1.32-8.62.12-10.95,3.28-2.29,3.1-2.02,7.71.62,10.49.42.44.4,1.14-.04,1.56-.21.2-.49.3-.76.3-.29,0-.59-.12-.8-.35-3.41-3.59-3.75-9.31-.79-13.32,2.91-3.95,8.69-5.69,13.44-4.04.58.2.88.82.68,1.4Z"/>
    </g>
  </g>
</svg>