<?xml version="1.0" encoding="UTF-8"?>
<svg id="Layer_2" data-name="Layer 2" xmlns="http://www.w3.org/2000/svg" viewBox="0 0 45.17 42.07">
  <defs>
    <style>
      .cls-1 {
        fill: #e4b3d3;
      }

      .cls-2 {
        fill: #ee222b;
      }
    </style>
  </defs>
  <g id="Layer_1-2" data-name="Layer 1">
    <g>
      <path class="cls-2" d="M43.63,13.88c-.62-2.06-1.39-3.92-2.26-5.45-.26-.46-.53-.89-.8-1.29-5.67-8.19-10.55-10.2-26.06-1.45C5.28,10.89-2,15,.49,22.79c.5,1.56,1.41,3.2,2.64,4.85,1.76,2.37,4.18,4.74,6.97,6.85,2.71,2.05,5.76,3.86,8.91,5.19,2.94,1.24,6.71,2.39,10.62,2.39,2.5,0,5.06-.47,7.5-1.68,3.58-1.77,6.09-5.12,7.26-9.67,1.38-5.35.79-11.7-.76-16.84ZM41.18,29.89c-.46,1.82-1.16,3.37-2.08,4.63-.93,1.26-2.08,2.23-3.44,2.91-4,1.98-9.45,1.7-15.36-.8-8.5-3.59-15.26-10.51-16.66-14.85-1.52-4.75,2.43-7.53,12.5-13.21,6.69-3.78,10.93-5.26,13.9-5.26,3.85,0,5.58,2.5,7.81,5.72,3.07,4.42,5.14,13.86,3.33,20.86Z"/>
      <path class="cls-1" d="M37.85,9.03c-2.23-3.22-3.96-5.72-7.81-5.72-2.97,0-7.21,1.48-13.9,5.26C6.07,14.25,2.12,17.03,3.64,21.78c1.4,4.34,8.16,11.26,16.66,14.85,5.91,2.5,11.36,2.78,15.36.8,1.36-.68,2.51-1.65,3.44-2.91.92-1.26,1.62-2.81,2.08-4.63,1.81-7-.26-16.44-3.33-20.86ZM31.55,11.13c-6.25.15-19.45,7.67-20.42,10.93-.14.48-.58.79-1.06.79-.1,0-.21-.01-.31-.05-.59-.17-.92-.79-.75-1.37,1.42-4.73,16.15-12.36,22.49-12.51.6-.03,1.11.47,1.13,1.08.01.61-.47,1.11-1.08,1.13Z"/>
      <path class="cls-2" d="M32.63,10c.01.61-.47,1.11-1.08,1.13-6.25.15-19.45,7.67-20.42,10.93-.14.48-.58.79-1.06.79-.1,0-.21-.01-.31-.05-.59-.17-.92-.79-.75-1.37,1.42-4.73,16.15-12.36,22.49-12.51.6-.03,1.11.47,1.13,1.08Z"/>
    </g>
  </g>
</svg>