<?xml version="1.0" encoding="UTF-8"?>
<svg id="Layer_2" data-name="Layer 2" xmlns="http://www.w3.org/2000/svg" viewBox="0 0 44.01 44.48">
  <defs>
    <style>
      .cls-1 {
        fill: #f8971d;
      }

      .cls-2 {
        fill: #fce36b;
      }
    </style>
  </defs>
  <g id="Layer_1-2" data-name="Layer 1">
    <g>
      <path class="cls-1" d="M43.8,12.06c-.07-.44-.14-.85-.23-1.23C41.31,1.3,37.48-2.13,19.56,1.3,8.98,3.33.62,4.93.03,12.95c-.15,2.13.28,4.7,1.17,7.44.58,1.77,1.34,3.61,2.26,5.45h0c2.27,4.55,5.46,9.06,9.04,12.41,4.38,4.1,8.99,6.23,13.45,6.23.63,0,1.27-.04,1.9-.13,3.8-.53,7.13-2.84,9.89-6.87,3.53-5.17,5.46-12.2,6.05-18.1.3-2.81.29-5.36.01-7.32ZM35,35.61c-1.11,1.62-2.3,2.88-3.57,3.8-1.27.91-2.62,1.46-4.04,1.66-5.07.69-9.66-2.46-12.63-5.24C7.75,29.26,2.95,18.46,3.33,13.19c.39-5.24,6.05-6.57,16.85-8.64,4.46-.85,7.86-1.24,10.47-1.24,7.73,0,8.54,3.42,9.69,8.29,1.17,4.9-.34,16.7-5.34,24.01Z"/>
      <path class="cls-2" d="M40.34,11.6c-1.15-4.87-1.96-8.29-9.69-8.29-2.61,0-6.01.39-10.47,1.24C9.38,6.62,3.72,7.95,3.33,13.19c-.38,5.27,4.42,16.07,11.43,22.64,2.97,2.78,7.56,5.93,12.63,5.24,1.42-.2,2.77-.75,4.04-1.66,1.27-.92,2.46-2.18,3.57-3.8,5-7.31,6.51-19.11,5.34-24.01ZM32.77,10.93c-.1-.01-11.22-.75-21.72,4.56-.16.08-.32.12-.49.12-.4,0-.79-.23-.99-.61-.27-.54-.06-1.21.49-1.48,11.07-5.6,22.4-4.83,22.88-4.79.6.04,1.06.57,1.02,1.18-.05.6-.55,1.05-1.19,1.02Z"/>
      <path class="cls-1" d="M33.96,9.91c-.05.6-.55,1.05-1.19,1.02-.1-.01-11.22-.75-21.72,4.56-.16.08-.32.12-.49.12-.4,0-.79-.23-.99-.61-.27-.54-.06-1.21.49-1.48,11.07-5.6,22.4-4.83,22.88-4.79.6.04,1.06.57,1.02,1.18Z"/>
    </g>
  </g>
</svg>