<?xml version="1.0" encoding="UTF-8"?>
<svg id="Layer_2" data-name="Layer 2" xmlns="http://www.w3.org/2000/svg" viewBox="0 0 44.01 44.48">
  <defs>
    <style>
      .cls-1 {
        fill: #f8971d;
      }

      .cls-2 {
        fill: #fce36b;
      }
    </style>
  </defs>
  <g id="Layer_1-2" data-name="Layer 1">
    <g>
      <path class="cls-1" d="M43.97,12.95c-.59-8.02-8.95-9.62-19.52-11.65C6.52-2.13,2.69,1.3.44,10.83c-.09.37-.16.78-.22,1.21v.02c-.29,1.95-.3,4.49-.01,7.28v.04c.6,5.9,2.53,12.94,6.06,18.1,1.38,2.01,2.9,3.6,4.55,4.75,1.65,1.14,3.43,1.86,5.33,2.12.63.09,1.27.13,1.91.13,4.45,0,9.06-2.13,13.45-6.23,3.57-3.35,6.76-7.85,9.03-12.38.92-1.86,1.7-3.72,2.27-5.51.89-2.73,1.32-5.29,1.16-7.41ZM29.24,35.83c-2.96,2.78-7.55,5.95-12.63,5.24-2.84-.39-5.4-2.23-7.61-5.46C4,28.3,2.5,16.51,3.66,11.6c1.54-6.51,2.47-10.44,20.16-7.05,10.81,2.07,16.46,3.4,16.85,8.64.39,5.27-4.42,16.07-11.43,22.64Z"/>
      <path class="cls-2" d="M40.67,13.19c-.39-5.24-6.04-6.57-16.85-8.64C6.13,1.16,5.2,5.09,3.66,11.6c-1.16,4.91.34,16.7,5.34,24.01,2.21,3.23,4.77,5.07,7.61,5.46,5.08.71,9.67-2.46,12.63-5.24,7.01-6.57,11.82-17.37,11.43-22.64ZM34.43,15c-.19.38-.58.61-.98.61-.17,0-.34-.04-.5-.12-10.5-5.31-21.61-4.57-21.72-4.56-.64.03-1.14-.42-1.18-1.02-.05-.61.41-1.14,1.02-1.18.47-.04,11.81-.81,22.88,4.79.54.27.76.94.48,1.48Z"/>
      <path class="cls-1" d="M34.43,15c-.19.38-.58.61-.98.61-.17,0-.34-.04-.5-.12-10.5-5.31-21.61-4.57-21.72-4.56-.64.03-1.14-.42-1.18-1.02-.05-.61.41-1.14,1.02-1.18.47-.04,11.81-.81,22.88,4.79.54.27.76.94.48,1.48Z"/>
    </g>
  </g>
</svg>