<?xml version="1.0" encoding="UTF-8"?>
<svg id="Layer_2" data-name="Layer 2" xmlns="http://www.w3.org/2000/svg" viewBox="0 0 45.17 42.08">
  <defs>
    <style>
      .cls-1 {
        fill: #e4b3d3;
      }

      .cls-2 {
        fill: #ee222b;
      }
    </style>
  </defs>
  <g id="Layer_1-2" data-name="Layer 1">
    <g>
      <path class="cls-2" d="M30.65,5.7C15.14-3.06,10.26-1.04,4.59,7.15c-.27.39-.53.81-.79,1.26t-.01.02c-.87,1.54-1.64,3.41-2.26,5.49h0C-.02,19.06-.6,25.39.77,30.73c.59,2.27,1.51,4.25,2.73,5.88,1.22,1.63,2.74,2.91,4.53,3.79,2.44,1.21,5,1.68,7.5,1.68,3.91,0,7.68-1.15,10.62-2.39,3.15-1.33,6.2-3.14,8.91-5.2,2.78-2.1,5.2-4.46,6.96-6.82,1.23-1.65,2.15-3.31,2.65-4.87,2.5-7.79-4.79-11.9-14.02-17.1ZM24.86,36.64c-3.31,1.4-6.47,2.1-9.32,2.1-2.24,0-4.28-.43-6.04-1.3-2.72-1.36-4.58-3.89-5.52-7.54-1.81-7,.26-16.44,3.33-20.86,2.23-3.22,3.96-5.72,7.82-5.72,2.97,0,7.2,1.48,13.9,5.26,10.06,5.68,14.01,8.46,12.49,13.21-1.4,4.34-8.16,11.26-16.66,14.85Z"/>
      <path class="cls-1" d="M29.03,8.58c-6.7-3.78-10.93-5.26-13.9-5.26-3.86,0-5.59,2.5-7.82,5.72-3.07,4.42-5.14,13.86-3.33,20.86.94,3.65,2.8,6.18,5.52,7.54,1.76.87,3.8,1.3,6.04,1.3,2.85,0,6.01-.7,9.32-2.1,8.5-3.59,15.26-10.51,16.66-14.85,1.52-4.75-2.43-7.53-12.49-13.21ZM35.41,22.81c-.11.04-.21.05-.32.05-.47,0-.91-.31-1.05-.79-.98-3.26-14.17-10.78-20.43-10.93-.61-.02-1.09-.52-1.07-1.13.01-.61.52-1.12,1.12-1.08,6.34.15,21.07,7.78,22.49,12.51.17.58-.16,1.2-.74,1.37Z"/>
      <path class="cls-2" d="M35.41,22.81c-.11.04-.21.05-.32.05-.47,0-.91-.31-1.05-.79-.98-3.26-14.17-10.78-20.43-10.93-.61-.02-1.09-.52-1.07-1.13.01-.61.52-1.12,1.12-1.08,6.34.15,21.07,7.78,22.49,12.51.17.58-.16,1.2-.74,1.37Z"/>
    </g>
  </g>
</svg>