<?xml version="1.0" encoding="UTF-8"?>
<svg id="Layer_2" data-name="Layer 2" xmlns="http://www.w3.org/2000/svg" viewBox="0 0 45.69 41.07">
  <defs>
    <style>
      .cls-1 {
        fill: #a2d077;
      }

      .cls-2 {
        fill: #258842;
      }
    </style>
  </defs>
  <g id="Layer_1-2" data-name="Layer 1">
    <g>
      <path class="cls-2" d="M37.88,8.7C26.08-2.97,18.27-.92,12.02,3.44c0,0,0,0,0,.01-.96.66-1.88,1.38-2.77,2.12-1.41,1.16-2.86,2.77-4.17,4.69-.01,0-.02.01-.02.01C2.29,14.31.09,19.68,0,24.92v.33c0,4.51,1.6,8.31,4.67,11.02,3.55,3.14,8.59,4.8,14.48,4.8,1.39,0,2.83-.1,4.31-.29,4.05-.51,8.04-1.71,11.45-3.33,1.16-.55,2.25-1.15,3.26-1.79,2.28-1.45,4.12-3.11,5.3-4.85,2.5-3.71,5.11-11.53-5.59-22.11ZM40.72,28.96c-2.69,3.99-10.13,7.58-17.68,8.54-1.35.17-2.66.26-3.92.26-5.05,0-9.32-1.37-12.25-3.97-2.43-2.15-3.62-5.11-3.56-8.81.12-6.5,4.17-13.68,8.03-16.86,3.11-2.57,6.3-4.75,10.24-4.75s8.25,2.03,13.97,7.68c4.72,4.67,9.45,11.57,5.17,17.91Z"/>
      <path class="cls-1" d="M35.55,11.05c-5.72-5.65-10.19-7.68-13.97-7.68s-7.13,2.18-10.24,4.75c-3.86,3.18-7.91,10.36-8.03,16.86-.06,3.7,1.13,6.66,3.56,8.81,2.93,2.6,7.2,3.97,12.25,3.97,1.26,0,2.57-.09,3.92-.26,7.55-.96,14.99-4.55,17.68-8.54,4.28-6.34-.45-13.24-5.17-17.91ZM31.36,28.24c-.21.23-.5.35-.8.35-.27,0-.54-.1-.75-.3-.45-.42-.47-1.12-.04-1.56,2.63-2.78,2.9-7.39.61-10.49-2.33-3.16-7.13-4.6-10.95-3.28-.57.2-1.2-.11-1.4-.68-.2-.58.11-1.2.68-1.4,4.75-1.65,10.53.09,13.45,4.05,2.95,4,2.61,9.72-.8,13.31Z"/>
      <path class="cls-2" d="M31.36,28.24c-.21.23-.5.35-.8.35-.27,0-.54-.1-.75-.3-.45-.42-.47-1.12-.04-1.56,2.63-2.78,2.9-7.39.61-10.49-2.33-3.16-7.13-4.6-10.95-3.28-.57.2-1.2-.11-1.4-.68-.2-.58.11-1.2.68-1.4,4.75-1.65,10.53.09,13.45,4.05,2.95,4,2.61,9.72-.8,13.31Z"/>
    </g>
  </g>
</svg>