<?xml version="1.0" encoding="UTF-8"?>
<svg id="Layer_2" data-name="Layer 2" xmlns="http://www.w3.org/2000/svg" viewBox="0 0 44.89 40.94">
  <defs>
    <style>
      .cls-1 {
        fill: #5252a3;
      }

      .cls-2 {
        fill: #b2b0d8;
      }
    </style>
  </defs>
  <g id="Layer_1-2" data-name="Layer 1">
    <g>
      <path class="cls-1" d="M40.78,11.83C31.34-2.85,21.85-1.15,14.39,2.62c-.02.01-.04.02-.06.03-.42.21-.83.43-1.23.65-.59.32-1.25.69-1.97,1.11-.01,0-.02.01-.03.01C4.78,8.11-5.22,15.73,3.27,31.84c2.52,4.8,6.95,7.83,12.81,8.78,1.34.22,2.7.32,4.08.32,1.61,0,3.22-.14,4.81-.4,3.17-.5,6.24-1.47,8.91-2.71h.02c2.58-1.2,4.79-2.64,6.39-4.17,5.97-5.71,6.13-13.06.49-21.83ZM38,31.27c-4.1,3.93-13.45,7.38-21.39,6.08-2.43-.39-4.52-1.18-6.26-2.36-1.74-1.18-3.13-2.75-4.16-4.69C-1.14,16.39,6.74,10.56,14.7,6.2c2.83-1.56,5.89-2.95,9.15-2.95,4.35,0,9.08,2.49,14.15,10.37,4.79,7.45,4.79,13.06,0,17.65Z"/>
      <path class="cls-2" d="M38,13.62c-5.07-7.88-9.8-10.37-14.15-10.37-3.26,0-6.32,1.39-9.15,2.95C6.74,10.56-1.14,16.39,6.19,30.3c1.03,1.94,2.42,3.51,4.16,4.69,1.74,1.18,3.83,1.97,6.26,2.36,7.94,1.3,17.29-2.15,21.39-6.08,4.79-4.59,4.79-10.2,0-17.65ZM32.5,15.72c-.54.49-1.13.92-1.76,1.29-1.81,1.64-2.88,3.88-3.48,5.64-1.03,2.99-1.03,4.93.01,7.16h.01c.25.57.01,1.22-.54,1.48-.15.07-.31.1-.46.1-.42,0-.82-.23-1-.63v-.02c-2.53-5.38-6.36-5.32-13.88-3.94-.58.09-1.13-.26-1.27-.82-.14-.57.19-1.15.75-1.32.04-.02,4.19-1.34,5.82-4.43,1.31-2.5,1.61-4.63.89-6.33-.22-.52-.01-1.13.5-1.4.51-.27,1.13-.11,1.44.37,1.21,1.86,3.11,3.05,5.22,3.27,1.6.17,3.3-.19,4.72-.96.53-.45,1.1-.87,1.73-1.23.49-.28,1.11-.15,1.44.3.33.46.27,1.09-.14,1.47Z"/>
      <path class="cls-1" d="M32.64,14.25c-.33-.45-.95-.58-1.44-.3-.63.36-1.2.78-1.73,1.23-1.42.77-3.12,1.13-4.72.96-2.11-.22-4.01-1.41-5.22-3.27-.31-.48-.93-.64-1.44-.37-.51.27-.72.88-.5,1.4.72,1.7.42,3.83-.89,6.33-1.63,3.09-5.78,4.41-5.82,4.43-.56.17-.89.75-.75,1.32.14.56.69.91,1.27.82,7.52-1.38,11.35-1.44,13.87,3.94v.02c.19.4.59.63,1.01.63.15,0,.31-.03.46-.1.55-.26.79-.91.54-1.47h-.01c-1.04-2.24-1.04-4.18-.01-7.17.6-1.76,1.67-4,3.48-5.64.63-.37,1.22-.8,1.76-1.29.41-.38.47-1.01.14-1.47ZM25.17,21.93c-.42,1.22-.77,2.49-.86,3.86-1.79-1.47-3.94-1.98-6.43-1.98-.42,0-.85.01-1.28.04.78-.71,1.51-1.57,2.05-2.6.86-1.62,1.36-3.16,1.5-4.58,1.28.92,2.78,1.5,4.37,1.67.78.08,1.57.07,2.34-.03-.76,1.25-1.31,2.52-1.69,3.62Z"/>
    </g>
  </g>
</svg>