<?xml version="1.0" encoding="UTF-8"?>
<svg id="Layer_2" data-name="Layer 2" xmlns="http://www.w3.org/2000/svg" viewBox="0 0 66.69 60.9">
  <defs>
    <style>
      .cls-1 {
        fill: #5252a3;
      }

      .cls-2 {
        fill: #b2b0d8;
      }
    </style>
  </defs>
  <g id="Layer_1-2" data-name="Layer 1">
    <g>
      <path class="cls-1" d="M37.52.89s-.02-.01-.03,0c-.19-.03-.38-.05-.57-.07l-2.95-.35C31.8.2,29.57.01,27.33,0,15.56-.08,3.68,4.67.48,27.64c-2.14,15.31,2.91,25.46,15.02,30.16,4.97,1.94,11.36,3.1,17.9,3.1,7.76,0,15.74-1.64,21.84-5.57,6.95-4.5,10.88-11.55,11.35-20.4C68.2,4.79,50.68,2.37,37.52.89ZM61.66,34.66c-.39,7.31-3.45,12.87-9.1,16.52-10.49,6.77-26.94,5.26-35.28,2.02-9.95-3.87-13.74-11.77-11.91-24.87C7.93,10.01,15.76,4.93,27.01,4.93c2.01,0,4.13.16,6.34.44l3.02.35c13.11,1.48,26.67,3,25.29,28.94Z"/>
      <path class="cls-2" d="M36.37,5.72l-3.02-.35c-2.21-.28-4.33-.44-6.34-.44-11.25,0-19.08,5.08-21.64,23.4-1.83,13.1,1.96,21,11.91,24.87,8.34,3.24,24.79,4.75,35.28-2.02,5.65-3.65,8.71-9.21,9.1-16.52,1.38-25.94-12.18-27.46-25.29-28.94ZM53.81,36.7c-.09.83-.78,1.47-1.62,1.48-.68.01-1.39-.08-2.11-.26-2.38-.11-4.76.67-6.54,2.1-1.95,1.56-3.27,3.66-3.62,5.66.04.62.01,1.25-.09,1.88-.13.8-.82,1.38-1.63,1.38h-.07c-.83-.03-1.5-.68-1.57-1.51-.05-.61-.03-1.23.04-1.86-.29-2.62-2.42-5.25-5.44-6.49-3.26-1.33-7.77-1.32-12.07.04-.79.24-1.62-.12-1.98-.86-.35-.74-.11-1.63.58-2.08,2.6-1.72,4.33-4.51,4.65-7.45.3-2.81-.94-6.05-3.16-8.26-.62-.62-.65-1.63-.05-2.28.61-.65,1.62-.71,2.29-.14,3.4,2.91,8.21,4.39,12.85,3.95,3.07-.29,5.66-1.52,7.61-2.82,1.35-1.44,2.92-2.7,4.31-3.82.66-.52,1.59-.47,2.19.12.59.58.65,1.52.14,2.19-.12.14-1.71,2.14-4.5,4.06-1.72,1.91-2.46,3.76-1.55,5.91,1.18,2.73,4.95,6.11,8.12,7.01.65.05,1.29.13,1.93.27.82.18,1.37.94,1.29,1.78Z"/>
      <path class="cls-1" d="M52.52,34.92c-.64-.14-1.28-.22-1.93-.27-3.17-.9-6.94-4.28-8.12-7.01-.91-2.15-.17-4,1.55-5.91,2.79-1.92,4.38-3.92,4.5-4.06.51-.67.45-1.61-.14-2.19-.6-.59-1.53-.64-2.19-.12-1.39,1.12-2.96,2.38-4.31,3.82-1.95,1.3-4.54,2.53-7.61,2.82-4.64.44-9.45-1.04-12.85-3.95-.67-.57-1.68-.51-2.29.14-.6.65-.57,1.66.05,2.28,2.22,2.21,3.46,5.45,3.16,8.26-.32,2.94-2.05,5.73-4.65,7.45-.69.45-.93,1.34-.58,2.08.36.74,1.19,1.1,1.98.86,4.3-1.36,8.81-1.37,12.07-.04,3.02,1.24,5.15,3.87,5.44,6.49-.07.63-.09,1.25-.04,1.86.07.83.74,1.48,1.57,1.51h.07c.81,0,1.5-.58,1.63-1.38.1-.63.13-1.26.09-1.88.35-2,1.67-4.1,3.62-5.66,1.78-1.43,4.16-2.21,6.54-2.1.72.18,1.43.27,2.11.26.84-.01,1.53-.65,1.62-1.48.08-.84-.47-1.6-1.29-1.78ZM41.48,37.45c-1.27,1.02-2.33,2.2-3.14,3.48-1.32-2.08-3.38-3.84-5.93-4.89-2.03-.83-4.36-1.25-6.84-1.25-.67,0-1.36.03-2.05.09,1.14-1.75,1.88-3.74,2.1-5.8.18-1.68-.03-3.43-.57-5.12,3,1.15,6.3,1.63,9.53,1.32,1.56-.15,3.01-.49,4.34-.95-.3,1.41-.18,2.94.53,4.61.97,2.27,3.08,4.72,5.58,6.53-1.29.47-2.5,1.14-3.55,1.98Z"/>
    </g>
  </g>
</svg>