<?xml version="1.0" encoding="UTF-8"?>
<svg id="Layer_2" data-name="Layer 2" xmlns="http://www.w3.org/2000/svg" viewBox="0 0 67.41 62.78">
  <defs>
    <style>
      .cls-1 {
        fill: #f8971d;
      }

      .cls-2 {
        fill: #fce36b;
      }
    </style>
  </defs>
  <g id="Layer_1-2" data-name="Layer 1">
    <g>
      <path class="cls-1" d="M45.75,8.49C22.59-4.57,15.32-1.56,6.85,10.66c-.05.07-.1.14-.15.22h0c-2.29,3.41-4.26,8.38-5.47,13.93-1.47,6.78-1.78,14.42-.07,21.04.88,3.4,2.25,6.34,4.07,8.77,1.83,2.43,4.1,4.33,6.77,5.66,3.63,1.81,7.45,2.5,11.18,2.5,5.84,0,11.47-1.71,15.85-3.56,5.9-2.5,11.59-6.12,16.3-10.16,2.89-2.49,5.41-5.14,7.38-7.78,1.85-2.47,3.21-4.94,3.96-7.27,3.73-11.62-7.15-17.75-20.92-25.52ZM37.11,54.67c-4.94,2.08-9.67,3.13-13.92,3.13-3.33,0-6.38-.64-9-1.94-4.07-2.02-6.85-5.81-8.25-11.25-2.69-10.44.4-24.53,4.97-31.13,3.33-4.81,5.91-8.53,11.67-8.53,4.43,0,10.75,2.21,20.74,7.84,15.03,8.48,20.92,12.63,18.65,19.71-2.08,6.49-12.18,16.81-24.86,22.17Z"/>
      <path class="cls-2" d="M43.32,12.79c-9.99-5.63-16.31-7.84-20.74-7.84-5.76,0-8.34,3.72-11.67,8.53-4.57,6.6-7.66,20.69-4.97,31.13,1.4,5.44,4.18,9.23,8.25,11.25,2.62,1.3,5.67,1.94,9,1.94,4.25,0,8.98-1.05,13.92-3.13,12.68-5.36,22.78-15.68,24.86-22.17,2.27-7.08-3.62-11.23-18.65-19.71ZM52.85,34.04c-.16.04-.32.06-.47.06-.71,0-1.37-.46-1.58-1.17-1.46-4.87-21.14-16.1-30.48-16.32-.91-.02-1.63-.77-1.61-1.68.02-.91.81-1.62,1.69-1.61,9.45.22,31.44,11.6,33.55,18.67.26.87-.23,1.78-1.1,2.05Z"/>
      <path class="cls-1" d="M52.85,34.04c-.16.04-.32.06-.47.06-.71,0-1.37-.46-1.58-1.17-1.46-4.87-21.14-16.1-30.48-16.32-.91-.02-1.63-.77-1.61-1.68.02-.91.81-1.62,1.69-1.61,9.45.22,31.44,11.6,33.55,18.67.26.87-.23,1.78-1.1,2.05Z"/>
    </g>
  </g>
</svg>