<?xml version="1.0" encoding="UTF-8"?>
<svg id="Layer_2" data-name="Layer 2" xmlns="http://www.w3.org/2000/svg" viewBox="0 0 67.81 61.72">
  <defs>
    <style>
      .cls-1 {
        fill: #e4b3d3;
      }

      .cls-2 {
        fill: #ee222b;
      }
    </style>
  </defs>
  <g id="Layer_1-2" data-name="Layer 1">
    <g>
      <path class="cls-2" d="M53.64,10.36C34.77-4.58,23.6-.92,15.14,6.18h0c-1.58,1.33-3.07,2.77-4.49,4.24-.98,1.01-1.95,2.2-2.89,3.54C3.05,20.67-.76,31.06.13,40.65c.32,3.46,1.24,6.57,2.72,9.27s3.52,4.99,6.07,6.79c4.7,3.32,10.7,5.01,17.46,5.01,3.53,0,7.28-.46,11.15-1.4,5.65-1.36,11.09-3.62,15.74-6.39,1.87-1.12,3.6-2.31,5.17-3.57,3.18-2.54,5.66-5.31,7.13-8.12,3.11-5.92,5.7-17.94-11.93-31.88ZM61.2,39.95c-3.34,6.36-13.78,12.91-24.82,15.57-3.51.84-6.87,1.26-10.02,1.26-5.73,0-10.74-1.38-14.59-4.1-3.95-2.79-6.21-6.99-6.72-12.48-.9-9.67,3.94-20.98,9.14-26.34,4.61-4.74,9.45-8.82,16.19-8.82,5.29,0,11.76,2.52,20.2,9.2,7.77,6.14,15.93,15.6,10.62,25.71Z"/>
      <path class="cls-1" d="M50.58,14.24c-8.44-6.68-14.91-9.2-20.2-9.2-6.74,0-11.58,4.08-16.19,8.82-5.2,5.36-10.04,16.67-9.14,26.34.51,5.49,2.77,9.69,6.72,12.48,3.85,2.72,8.86,4.1,14.59,4.1,3.15,0,6.51-.42,10.02-1.26,11.04-2.66,21.48-9.21,24.82-15.57,5.31-10.11-2.85-19.57-10.62-25.71ZM47.2,40.42c-.33.43-.82.66-1.31.66-.35,0-.7-.11-1-.34-.72-.55-.86-1.58-.32-2.31,3.46-4.55,3.11-11.43-.8-15.66-3.97-4.3-11.34-5.64-16.78-3.05-.83.39-1.8.04-2.19-.78-.39-.83-.04-1.81.78-2.2,6.77-3.22,15.63-1.59,20.61,3.8,5.04,5.45,5.48,14,1.01,19.88Z"/>
      <path class="cls-2" d="M47.2,40.42c-.33.43-.82.66-1.31.66-.35,0-.7-.11-1-.34-.72-.55-.86-1.58-.32-2.31,3.46-4.55,3.11-11.43-.8-15.66-3.97-4.3-11.34-5.64-16.78-3.05-.83.39-1.8.04-2.19-.78-.39-.83-.04-1.81.78-2.2,6.77-3.22,15.63-1.59,20.61,3.8,5.04,5.45,5.48,14,1.01,19.88Z"/>
    </g>
  </g>
</svg>