<?xml version="1.0" encoding="UTF-8"?>
<svg id="Layer_2" data-name="Layer 2" xmlns="http://www.w3.org/2000/svg" viewBox="0 0 67.97 59.49">
  <defs>
    <style>
      .cls-1 {
        fill: #a2d077;
      }

      .cls-2 {
        fill: #258842;
      }
    </style>
  </defs>
  <g id="Layer_1-2" data-name="Layer 1">
    <g>
      <path class="cls-2" d="M61.15,17.49C45.5-5.33,30.75-1.38,19.6,4.76c-.01.01-.02.02-.03.02-.09.05-.18.1-.27.15-1.59.89-3.24,2.03-4.87,3.4C8.27,13.47,2.34,21.66.53,30.52c-.35,1.73-.53,3.42-.53,5.05,0,4.66,1.42,8.91,4.19,12.49,5.1,6.58,13.93,10.6,24.86,11.32,1.16.08,2.33.11,3.5.11,5.34,0,10.67-.77,15.44-2.18,4.83-1.42,9.09-3.48,12.19-6.01.51-.41.99-.84,1.43-1.28,8.64-8.55,8.48-19.49-.46-32.53ZM58.14,46.51c-5.4,5.34-17.47,8.7-28.77,7.94-9.5-.62-17.05-3.97-21.28-9.42-2.87-3.71-3.79-8.26-2.71-13.52,1.96-9.63,9.88-18.66,16.33-22.26C31.43,3.82,42.98-.26,57.08,20.29c9.98,14.56,5.38,21.94,1.06,26.22Z"/>
      <path class="cls-1" d="M57.08,20.29C42.98-.26,31.43,3.82,21.71,9.25c-6.45,3.6-14.37,12.63-16.33,22.26-1.08,5.26-.16,9.81,2.71,13.52,4.23,5.45,11.78,8.8,21.28,9.42,11.3.76,23.37-2.6,28.77-7.94,4.32-4.28,8.92-11.66-1.06-26.22ZM35.16,47.85c-.31.53-.87.82-1.43.82-.28,0-.57-.07-.82-.22-.79-.45-1.06-1.46-.61-2.25,2.48-4.29,2.14-9.86-.83-13.87-3.02-4.06-8.58-6.33-13.85-5.67-.89.09-1.73-.52-1.85-1.42-.11-.9.53-1.73,1.43-1.85,6.41-.82,13.21,1.99,16.91,6.98,3.75,5.05,4.16,12.07,1.05,17.48ZM51.03,37.42c-.19.75-.86,1.25-1.6,1.25-.13,0-.27-.02-.4-.05-5.6-1.42-10.5-4.91-13.46-9.59-2.98-4.7-3.89-10.45-2.51-15.77.23-.88,1.12-1.41,2.01-1.18.88.23,1.41,1.13,1.18,2.01-1.16,4.44-.39,9.25,2.1,13.18,2.51,3.97,6.7,6.94,11.48,8.15.88.23,1.42,1.12,1.2,2Z"/>
      <path class="cls-2" d="M51.03,37.42c-.19.75-.86,1.25-1.6,1.25-.13,0-.27-.02-.4-.05-5.6-1.42-10.5-4.91-13.46-9.59-2.98-4.7-3.89-10.45-2.51-15.77.23-.88,1.12-1.41,2.01-1.18.88.23,1.41,1.13,1.18,2.01-1.16,4.44-.39,9.25,2.1,13.18,2.51,3.97,6.7,6.94,11.48,8.15.88.23,1.42,1.12,1.2,2Z"/>
      <path class="cls-2" d="M35.16,47.85c-.31.53-.87.82-1.43.82-.28,0-.57-.07-.82-.22-.79-.45-1.06-1.46-.61-2.25,2.48-4.29,2.14-9.86-.83-13.87-3.02-4.06-8.58-6.33-13.85-5.67-.89.09-1.73-.52-1.85-1.42-.11-.9.53-1.73,1.43-1.85,6.41-.82,13.21,1.99,16.91,6.98,3.75,5.05,4.16,12.07,1.05,17.48Z"/>
    </g>
  </g>
</svg>