<?xml version="1.0" encoding="UTF-8"?>
<svg id="Layer_2" data-name="Layer 2" xmlns="http://www.w3.org/2000/svg" viewBox="0 0 64.87 59.43">
  <defs>
    <style>
      .cls-1 {
        fill: #a2d077;
      }

      .cls-2 {
        fill: #258842;
      }
    </style>
  </defs>
  <g id="Layer_1-2" data-name="Layer 1">
    <g>
      <path class="cls-2" d="M58.04,17.49C46.2.22,34.87-1.72,25.23,1.02c-3.22.92-6.24,2.35-9.04,3.91-1.08.6-2.13,1.31-3.15,2.1C7.04,11.7,2.23,19.45.61,27.4c-1.58,7.77-.1,14.87,4.29,20.53,5.17,6.69,13.6,10.74,23.72,11.4.98.07,1.96.1,2.95.1,2.38,0,4.76-.19,7.09-.54,4.81-.73,9.38-2.18,13.25-4.19,2.55-1.33,4.79-2.9,6.59-4.68,8.63-8.55,8.48-19.49-.46-32.53ZM55.03,46.51c-5.36,5.3-16.09,8.55-26.09,7.89-4.34-.29-8.3-1.27-11.72-2.88-3.41-1.61-6.27-3.83-8.42-6.61-4.39-5.68-4.25-12.12-3.35-16.52,1.6-7.85,7.01-15.72,13.14-19.15,4.17-2.33,8.67-4.4,13.56-4.4,6.53,0,13.76,3.7,21.82,15.45,9.98,14.55,5.38,21.93,1.06,26.22Z"/>
      <path class="cls-1" d="M53.97,20.29c-8.06-11.75-15.29-15.45-21.82-15.45-4.89,0-9.39,2.07-13.56,4.4-6.13,3.43-11.54,11.3-13.14,19.15-.9,4.4-1.04,10.84,3.35,16.52,2.15,2.78,5.01,5,8.42,6.61,3.42,1.61,7.38,2.59,11.72,2.88,10,.66,20.73-2.59,26.09-7.89,4.32-4.29,8.92-11.67-1.06-26.22ZM32.49,42.92c-.04.27-.14.53-.31.75-.32.44-.84.68-1.35.68-.26,0-.52-.06-.75-.18-.72-.38-.99-1.45-.73-2.22,1.33-4.05.83-8.01-1.46-11.44-2.3-3.46-6.99-5.83-11.95-6.04-.91-.04-1.62-.81-1.58-1.72.04-.91.87-1.65,1.72-1.57,6.06.26,11.64,3.14,14.56,7.51,2.81,4.22,3.47,9.27,1.85,14.23ZM48.73,37.62c-.17.77-.85,1.3-1.6,1.3-.12,0-.24-.01-.36-.04-5.42-1.18-10.15-4.68-12.64-9.36-2.51-4.71-2.64-10.4-.35-15.22.39-.82,1.37-1.16,2.19-.78.82.4,1.17,1.38.78,2.2-1.84,3.87-1.74,8.46.29,12.25,2.04,3.84,5.94,6.71,10.43,7.69.89.2,1.46,1.07,1.26,1.96Z"/>
      <path class="cls-2" d="M32.49,42.92c-.04.27-.14.53-.31.75-.32.44-.84.68-1.35.68-.26,0-.52-.06-.75-.18-.72-.38-.99-1.45-.73-2.22,1.33-4.05.83-8.01-1.46-11.44-2.3-3.46-6.99-5.83-11.95-6.04-.91-.04-1.62-.81-1.58-1.72.04-.91.87-1.65,1.72-1.57,6.06.26,11.64,3.14,14.56,7.51,2.81,4.22,3.47,9.27,1.85,14.23Z"/>
      <path class="cls-2" d="M48.73,37.62c-.17.77-.85,1.3-1.6,1.3-.12,0-.24-.01-.36-.04-5.42-1.18-10.15-4.68-12.64-9.36-2.51-4.71-2.64-10.4-.35-15.22.39-.82,1.37-1.16,2.19-.78.82.4,1.17,1.38.78,2.2-1.84,3.87-1.74,8.46.29,12.25,2.04,3.84,5.94,6.71,10.43,7.69.89.2,1.46,1.07,1.26,1.96Z"/>
    </g>
  </g>
</svg>