<?xml version="1.0" encoding="UTF-8"?>
<svg id="Layer_2" data-name="Layer 2" xmlns="http://www.w3.org/2000/svg" viewBox="0 0 65.95 60.26">
  <defs>
    <style>
      .cls-1 {
        fill: #5252a3;
      }

      .cls-2 {
        fill: #b2b0d8;
      }
    </style>
  </defs>
  <g id="Layer_1-2" data-name="Layer 1">
    <g>
      <path class="cls-2" d="M57.97,23.85C48.34,1.38,36.17,3.46,25.51,7.16,12.72,11.62-.32,18.24,7.03,40.53c2.06,6.24,6.63,10.6,13.58,12.96,11.38,3.87,25.99,1.11,33-3.66,8.18-5.57,9.57-13.82,4.36-25.98ZM49.36,25.58c-.91.59-1.89,1.08-2.91,1.46-3.08,1.98-5.2,5.01-6.52,7.45-2.26,4.16-2.73,7.02-1.75,10.56.04.15.06.29.06.44,0,.72-.48,1.38-1.21,1.58-.14.04-.29.06-.44.06-.72,0-1.38-.47-1.58-1.2-2.22-7.99-7.29-9.29-17.23-9.29-.71,0-1.45,0-2.22.02-.83.1-1.59-.65-1.66-1.52-.07-.86.56-1.63,1.42-1.75.06-.01,6.51-.94,9.67-5.08,2.55-3.35,3.52-6.41,2.88-9.09-.2-.83.27-1.68,1.08-1.94.81-.28,1.69.12,2.03.9,1.31,3.04,3.82,5.27,6.86,6.11,2.33.64,4.91.53,7.19-.25.89-.54,1.83-1.01,2.85-1.38.78-.3,1.67.05,2.05.8.37.75.13,1.66-.57,2.12Z"/>
      <path class="cls-1" d="M49.93,23.46c-.38-.75-1.27-1.1-2.05-.8-1.02.37-1.96.84-2.85,1.38-2.28.78-4.86.89-7.19.25-3.04-.84-5.55-3.07-6.86-6.11-.34-.78-1.22-1.18-2.03-.9-.81.26-1.28,1.11-1.08,1.94.64,2.68-.33,5.74-2.88,9.09-3.16,4.14-9.61,5.07-9.67,5.08-.86.12-1.49.89-1.42,1.75.07.87.83,1.62,1.66,1.52.77-.01,1.51-.02,2.22-.02,9.94,0,15.01,1.3,17.23,9.29.2.73.86,1.2,1.58,1.2.15,0,.3-.02.44-.06.73-.2,1.21-.86,1.21-1.58,0-.15-.02-.29-.06-.44-.98-3.54-.51-6.4,1.75-10.56,1.32-2.44,3.44-5.47,6.52-7.45,1.02-.38,2-.87,2.91-1.46.7-.46.94-1.37.57-2.12ZM37.03,32.92c-.91,1.68-1.75,3.47-2.22,5.46-2.65-3.04-6.36-4.29-10.87-4.76,1.33-.86,2.62-1.95,3.67-3.32,1.66-2.18,2.77-4.32,3.33-6.38,1.66,1.68,3.72,2.9,6.02,3.54,1.13.32,2.29.49,3.46.54-1.44,1.64-2.55,3.38-3.39,4.92Z"/>
      <path class="cls-1" d="M62.51,21.91C53.78,1.53,42.06-1.39,31.41.47c0,0-.01,0-.01.01-2.59.45-5.12,1.18-7.52,2.02-1.61.56-3.6,1.25-5.73,2.17,0-.01,0,0-.02,0C10.1,8.1,0,14.64,0,28.97c0,3.79.71,8.14,2.35,13.11,2.53,7.68,8.3,13.24,16.67,16.09,4.11,1.39,8.54,2.03,12.94,2.08.19.01.39.01.58.01,7.43,0,14.71-1.67,20.13-4.24,1.37-.65,2.62-1.35,3.72-2.1,10.19-6.94,12.25-17.71,6.12-32.01ZM53.61,49.83c-7.01,4.77-21.62,7.53-33,3.66-6.95-2.36-11.52-6.72-13.58-12.96C-.32,18.24,12.72,11.62,25.51,7.16c10.66-3.7,22.83-5.78,32.46,16.69,5.21,12.16,3.82,20.41-4.36,25.98Z"/>
    </g>
  </g>
</svg>