<?xml version="1.0" encoding="UTF-8"?>
<svg id="Layer_2" data-name="Layer 2" xmlns="http://www.w3.org/2000/svg" viewBox="0 0 67.71 62.32">
  <defs>
    <style>
      .cls-1 {
        fill: #5252a3;
      }

      .cls-2 {
        fill: #b2b0d8;
      }
    </style>
  </defs>
  <g id="Layer_1-2" data-name="Layer 1">
    <g>
      <path class="cls-1" d="M49.07,4.24c-3.62-1.41-7.09-2.23-9.67-2.84C35.85.56,32.1-.06,28.34,0,18.05.18,7.77,5.5,1.91,25.57c-4.51,15.42-1.02,26.32,10.36,32.41,2.83,1.51,6.4,2.7,10.37,3.45h.02c3.06.57,6.36.89,9.72.89h.42s.02,0,.03,0c6.46-.06,13.16-1.27,18.97-4.02,8.13-3.84,13.28-10.16,14.9-18.27,4.55-22.8-7.19-31.73-17.63-35.79ZM61.86,39.07c-1.32,6.6-5.41,11.57-12.17,14.76-11.37,5.38-27.07,4.08-35.09-.21-9.29-4.96-11.82-13.44-7.95-26.66C11.55,10.16,19.08,4.93,28.79,4.93c2.96,0,6.12.49,9.48,1.28,12.06,2.86,24.53,7.39,24.53,24.18,0,2.59-.3,5.47-.94,8.68Z"/>
      <path class="cls-2" d="M38.27,6.21c-3.36-.79-6.52-1.28-9.48-1.28-9.71,0-17.24,5.23-22.14,22.03-3.87,13.22-1.34,21.7,7.95,26.66,8.02,4.29,23.72,5.59,35.09.21,6.76-3.19,10.85-8.16,12.17-14.76.64-3.21.94-6.09.94-8.68,0-16.79-12.47-21.32-24.53-24.18ZM51.54,40.97c-.65.14-1.31.2-1.99.17-2.1.28-4.06,1.04-5.58,2.17-1.79,1.33-2.86,3.47-2.78,5.59.03.87-.63,1.62-1.5,1.7h-.15c-.81,0-1.51-.6-1.63-1.41-.37-2.66-1.37-5.29-6.33-7.3-4.34-1.75-10.42,1.14-10.48,1.18-.79.38-1.75.07-2.17-.71-.41-.78-.15-1.74.61-2.19,3.59-2.13,6.14-5.73,6.79-9.63.64-3.76-.6-7.72-3.4-10.88h-.01s-.01-.03-.01-.03c-.61-.68-.54-1.72.14-2.32.68-.6,1.72-.55,2.32.13,0,.02.03.03.04.05,2.4,2.7,5.91,4.62,9.62,5.26,3.6.61,7.09.17,10.16-1.28.25-.15.51-.28.79-.4.8-.33,1.75.02,2.12.81.38.79.07,1.75-.71,2.16-.22.12-.44.23-.67.34-1.78,1.09-2.44,3.36-2.64,4.34-.31,1.46-.59,4.24,1.02,6.57,1.01,1.45,2.69,2.39,4.34,2.54.57-.07,1.15-.11,1.73-.12.88-.03,1.57.62,1.66,1.46.1.84-.46,1.62-1.29,1.8Z"/>
      <path class="cls-1" d="M52.83,39.17c-.09-.84-.78-1.49-1.66-1.46-.58.01-1.16.05-1.73.12-1.65-.15-3.33-1.09-4.34-2.54-1.61-2.33-1.33-5.11-1.02-6.57.2-.98.86-3.25,2.64-4.34.23-.11.45-.22.67-.34.78-.41,1.09-1.37.71-2.16-.37-.79-1.32-1.14-2.12-.81-.28.12-.54.25-.79.4-3.07,1.45-6.56,1.89-10.16,1.28-3.71-.64-7.22-2.56-9.62-5.26-.01-.02-.03-.03-.04-.05-.6-.68-1.64-.73-2.32-.13-.68.6-.75,1.64-.14,2.32,0,0,0,0,.01.02h.01c2.8,3.17,4.04,7.13,3.4,10.89-.65,3.9-3.2,7.5-6.79,9.63-.76.45-1.02,1.41-.61,2.19.42.78,1.38,1.09,2.17.71.06-.04,6.14-2.93,10.48-1.18,4.96,2.01,5.96,4.64,6.33,7.3.12.81.82,1.41,1.63,1.41h.15c.87-.08,1.53-.83,1.5-1.7-.08-2.12.99-4.26,2.78-5.59,1.52-1.13,3.48-1.89,5.58-2.17.68.03,1.34-.03,1.99-.17.83-.18,1.39-.96,1.29-1.8ZM42.01,40.66c-1.09.81-1.99,1.82-2.67,2.95-1.39-2-3.53-3.56-6.53-4.77-1.43-.58-2.95-.8-4.43-.8-.62,0-1.23.04-1.82.11,1.54-2.11,2.59-4.53,3.02-7.06.38-2.26.24-4.56-.39-6.78,1.67.79,3.46,1.37,5.29,1.68,2.37.41,4.72.43,6.97.05-.25.63-.45,1.3-.6,2-.72,3.41-.17,6.65,1.55,9.12.55.81,1.24,1.51,2,2.09-.86.4-1.66.87-2.39,1.41Z"/>
    </g>
  </g>
</svg>