<?xml version="1.0" encoding="UTF-8"?>
<svg id="Layer_2" data-name="Layer 2" xmlns="http://www.w3.org/2000/svg" viewBox="0 0 66.69 60.91">
  <defs>
    <style>
      .cls-1 {
        fill: #5252a3;
      }

      .cls-2 {
        fill: #b2b0d8;
      }
    </style>
  </defs>
  <g id="Layer_1-2" data-name="Layer 1">
    <g>
      <path class="cls-2" d="M61.33,28.34c-2.56-18.32-10.4-23.4-21.65-23.4-2.01,0-4.13.16-6.34.44l-3.02.35c-13.11,1.48-26.67,3-25.28,28.94.19,3.65,1.05,6.87,2.57,9.63s3.69,5.06,6.52,6.88c10.49,6.78,26.94,5.27,35.28,2.03,9.96-3.87,13.74-11.78,11.92-24.87ZM49.58,38.27c-.35.74-1.2,1.11-1.98.86-4.3-1.36-8.81-1.37-12.06-.04-3.03,1.24-5.16,3.87-5.45,6.49.08.63.09,1.25.04,1.86-.06.83-.74,1.48-1.57,1.51h-.07c-.8,0-1.5-.58-1.62-1.38-.11-.63-.13-1.26-.1-1.88-.35-2-1.67-4.1-3.62-5.66-1.78-1.43-4.14-2.21-6.53-2.1-.72.18-1.4.28-2.12.26-.83-.01-1.53-.65-1.61-1.48-.09-.84.47-1.6,1.29-1.78.63-.14,1.28-.22,1.93-.27,3.17-.9,6.94-4.28,8.11-7.01.92-2.15.17-4-1.54-5.91-2.79-1.92-4.39-3.92-4.5-4.06-.52-.67-.46-1.61.13-2.19.6-.59,1.54-.64,2.19-.12,1.4,1.12,2.97,2.38,4.31,3.82,1.95,1.3,4.55,2.53,7.61,2.82,4.66.44,9.46-1.04,12.86-3.95.67-.57,1.67-.51,2.28.14.6.65.58,1.66-.05,2.28-2.22,2.21-3.46,5.45-3.16,8.26.32,2.94,2.06,5.73,4.65,7.45.69.45.93,1.34.58,2.08Z"/>
      <path class="cls-1" d="M49,36.19c-2.59-1.72-4.33-4.51-4.65-7.45-.3-2.81.94-6.05,3.16-8.26.63-.62.65-1.63.05-2.28-.61-.65-1.61-.71-2.28-.14-3.4,2.91-8.2,4.39-12.86,3.95-3.06-.29-5.66-1.52-7.61-2.82-1.34-1.44-2.91-2.7-4.31-3.82-.65-.52-1.59-.47-2.19.12-.59.58-.65,1.52-.13,2.19.11.14,1.71,2.14,4.5,4.06,1.71,1.91,2.46,3.76,1.54,5.91-1.17,2.73-4.94,6.11-8.11,7.01-.65.05-1.3.13-1.93.27-.82.18-1.38.94-1.29,1.78.08.83.78,1.47,1.61,1.48.72.02,1.4-.08,2.12-.26,2.39-.11,4.75.67,6.53,2.1,1.95,1.56,3.27,3.66,3.62,5.66-.03.62,0,1.25.1,1.88.12.8.82,1.38,1.62,1.38h.07c.83-.03,1.51-.68,1.57-1.51.05-.61.04-1.23-.04-1.86.29-2.62,2.42-5.25,5.45-6.49,3.25-1.33,7.76-1.32,12.06.04.78.25,1.63-.12,1.98-.86.35-.74.11-1.63-.58-2.08ZM34.29,36.05c-2.56,1.05-4.62,2.81-5.94,4.89-.81-1.28-1.87-2.46-3.14-3.48-1.05-.84-2.25-1.51-3.54-1.98,2.49-1.81,4.6-4.26,5.58-6.54.71-1.66.82-3.19.53-4.6,1.33.46,2.78.8,4.33.95,3.24.31,6.53-.17,9.53-1.32-.54,1.69-.74,3.44-.56,5.12.22,2.06.95,4.05,2.1,5.8-3.22-.28-6.32.1-8.89,1.16Z"/>
      <path class="cls-1" d="M66.22,27.65C63.02,4.69,51.16-.07,39.38,0t-.02,0c-2.24.01-4.47.2-6.64.47l-2.95.35c-.19.02-.38.04-.57.07-.01-.01-.02,0-.03,0C16.59,2.32,0,4.59,0,31.2c0,1.19.03,2.44.1,3.74.47,8.85,4.4,15.9,11.35,20.4,6.1,3.93,14.08,5.57,21.84,5.57,6.54,0,12.93-1.16,17.91-3.1,12.1-4.7,17.15-14.85,15.02-30.16ZM49.41,53.21c-8.34,3.24-24.79,4.75-35.28-2.03-2.83-1.82-5-4.12-6.52-6.88s-2.38-5.98-2.57-9.63C3.65,8.73,17.21,7.21,30.32,5.73l3.02-.35c2.21-.28,4.33-.44,6.34-.44,11.25,0,19.09,5.08,21.65,23.4,1.82,13.09-1.96,21-11.92,24.87Z"/>
    </g>
  </g>
</svg>