<?xml version="1.0" encoding="UTF-8"?>
<svg id="Layer_2" data-name="Layer 2" xmlns="http://www.w3.org/2000/svg" viewBox="0 0 67.71 62.32">
  <defs>
    <style>
      .cls-1 {
        fill: #5252a3;
      }

      .cls-2 {
        fill: #b2b0d8;
      }
    </style>
  </defs>
  <g id="Layer_1-2" data-name="Layer 1">
    <g>
      <path class="cls-2" d="M61.07,26.96c-4.91-16.79-12.44-22.03-22.14-22.03-2.96,0-6.13.49-9.49,1.28C15.52,9.51,1.07,15.04,5.86,39.07c.66,3.3,2.01,6.19,4.04,8.66,2.03,2.47,4.75,4.51,8.12,6.1,11.37,5.38,27.07,4.08,35.09-.21,9.29-4.96,11.82-13.43,7.96-26.66ZM48.78,42.36c-.42.78-1.37,1.09-2.17.71-.06-.04-6.14-2.93-10.48-1.18-4.96,2.02-5.96,4.64-6.28,6.95,0,.06-.02.11-.03.17h0s-.01,0-.01,0c-.18.75-.88,1.41-1.64,1.41h-.12c-.88-.08-1.56-.66-1.53-1.53.08-2.12-.98-4.26-2.78-5.59-1.51-1.13-3.48-1.89-5.57-2.17-.68.04-1.35-.03-2-.17-.83-.18-1.39-.96-1.29-1.8s.8-1.47,1.66-1.46c.58.01,1.16.05,1.73.12,1.66-.15,3.33-1.09,4.34-2.54,1.61-2.32,1.33-5.11,1.03-6.57-.21-.98-.87-3.25-2.65-4.34-.23-.11-.45-.22-.67-.34-.78-.41-1.09-1.37-.71-2.16.38-.79,1.32-1.15,2.13-.81.27.12.53.25.78.4,3.07,1.45,6.56,1.89,10.16,1.28,3.72-.64,7.23-2.56,9.63-5.27l.02-.02v-.02c.62-.68,1.65-.73,2.34-.13.67.6.74,1.64.14,2.32h-.01s-.01.02-.01.02c-2.8,3.17-4.05,7.14-3.41,10.89.66,3.9,3.2,7.5,6.79,9.63.76.45,1.03,1.41.61,2.19Z"/>
      <path class="cls-1" d="M48.17,40.17c-3.59-2.13-6.13-5.73-6.79-9.63-.64-3.75.61-7.72,3.41-10.89h.01s.01-.02.01-.02c.6-.68.53-1.72-.14-2.32-.69-.6-1.72-.55-2.33.13v.02s-.03.02-.03.02c-2.4,2.71-5.91,4.63-9.63,5.27-3.6.61-7.09.17-10.16-1.28-.25-.15-.51-.28-.78-.4-.81-.34-1.75.02-2.13.81-.38.79-.07,1.75.71,2.16.22.12.44.23.67.34,1.78,1.09,2.44,3.36,2.65,4.34.3,1.46.58,4.25-1.03,6.57-1.01,1.45-2.68,2.39-4.34,2.54-.57-.07-1.15-.11-1.73-.12-.86,0-1.56.62-1.66,1.46s.46,1.62,1.29,1.8c.65.14,1.32.21,2,.17,2.09.28,4.06,1.04,5.57,2.17,1.8,1.33,2.86,3.47,2.78,5.59-.03.87.65,1.45,1.53,1.53h.12c.76,0,1.46-.66,1.64-1.41h.01c.01-.07.02-.12.03-.18.32-2.31,1.32-4.93,6.28-6.95,4.34-1.75,10.42,1.14,10.48,1.18.8.38,1.75.07,2.17-.71.42-.78.15-1.74-.61-2.19ZM34.9,38.84c-2.97,1.21-5.11,2.75-6.51,4.8-.68-1.14-1.59-2.16-2.69-2.98-.72-.54-1.53-1.01-2.39-1.41.76-.58,1.45-1.28,2-2.09,1.72-2.47,2.27-5.71,1.55-9.12-.15-.7-.35-1.37-.6-2,2.25.38,4.6.36,6.98-.05,1.83-.31,3.61-.89,5.29-1.68-.64,2.22-.78,4.52-.4,6.78.43,2.52,1.48,4.95,3.02,7.06-2.02-.23-4.22-.13-6.25.69Z"/>
      <path class="cls-1" d="M65.81,25.57C59.95,5.5,49.66.18,39.37,0c-3.76-.07-7.51.55-11.06,1.39-2.57.61-6.03,1.43-9.65,2.84C9.8,7.67,0,14.62,0,30.56c0,2.86.32,6,1.01,9.47,1.62,8.11,6.77,14.43,14.9,18.27,5.82,2.75,12.52,3.96,18.97,4.02.01,0,.02-.01.03,0h.42c3.38,0,6.68-.32,9.74-.89,3.97-.75,7.54-1.94,10.37-3.45,11.38-6.08,14.87-16.99,10.37-32.41ZM53.11,53.62c-8.02,4.29-23.72,5.59-35.09.21-3.37-1.59-6.09-3.63-8.12-6.1-2.03-2.47-3.38-5.36-4.04-8.66C1.07,15.04,15.52,9.51,29.44,6.21c3.36-.79,6.53-1.28,9.49-1.28,9.7,0,17.23,5.24,22.14,22.03,3.86,13.23,1.33,21.7-7.96,26.66Z"/>
    </g>
  </g>
</svg>