<?xml version="1.0" encoding="UTF-8"?>
<svg id="Layer_2" data-name="Layer 2" xmlns="http://www.w3.org/2000/svg" viewBox="0 0 65.96 60.26">
  <defs>
    <style>
      .cls-1 {
        fill: #5252a3;
      }

      .cls-2 {
        fill: #b2b0d8;
      }
    </style>
  </defs>
  <g id="Layer_1-2" data-name="Layer 1">
    <g>
      <path class="cls-1" d="M47.81,4.67c-2.14-.92-4.13-1.61-5.74-2.17-2.4-.84-4.94-1.58-7.53-2.03C23.89-1.39,12.17,1.53,3.44,21.91c-6.13,14.3-4.07,25.07,6.13,32.01,1.1.75,2.34,1.45,3.71,2.1,5.41,2.57,12.7,4.24,20.14,4.24.2,0,.39,0,.59-.01,4.39-.05,8.81-.69,12.92-2.08,8.38-2.85,14.15-8.41,16.68-16.09,7.84-23.77-5.64-33.08-15.8-37.41ZM58.92,40.53c-2.06,6.24-6.63,10.6-13.58,12.96-11.38,3.87-25.99,1.11-32.99-3.66-8.19-5.57-9.58-13.82-4.37-25.98C14.37,8.96,21.86,4.85,29.3,4.85c3.78,0,7.55,1.06,11.15,2.31,10.22,3.56,20.6,8.51,20.6,21.73,0,3.32-.65,7.17-2.13,11.64Z"/>
      <path class="cls-2" d="M40.45,7.16c-3.6-1.25-7.37-2.31-11.15-2.31-7.44,0-14.93,4.11-21.32,19-5.21,12.16-3.82,20.41,4.37,25.98,7,4.77,21.61,7.53,32.99,3.66,6.95-2.36,11.52-6.72,13.58-12.96,1.48-4.47,2.13-8.32,2.13-11.64,0-13.22-10.38-18.17-20.6-21.73ZM50.39,36.66c-11.4-.18-17.07.7-19.44,9.27-.2.73-.87,1.2-1.59,1.2-.14,0-.29-.02-.44-.06-.88-.24-1.39-1.15-1.15-2.02.32-1.15.49-2.23.49-3.31,0-2.23-.72-4.44-2.24-7.25-1.32-2.44-3.44-5.47-6.52-7.45-1.02-.38-1.99-.87-2.9-1.46-.71-.46-.95-1.37-.57-2.12.37-.75,1.25-1.1,2.04-.8,1.02.37,1.97.84,2.85,1.38,2.29.78,4.87.89,7.19.25,3.05-.85,5.55-3.07,6.86-6.11.34-.78,1.22-1.18,2.03-.9.82.26,1.29,1.11,1.09,1.94-.64,2.68.32,5.74,2.88,9.09,3.17,4.17,9.6,5.07,9.66,5.08.87.11,1.49.88,1.42,1.75-.06.87-.7,1.6-1.66,1.52Z"/>
      <path class="cls-1" d="M50.63,33.39c-.06-.01-6.49-.91-9.66-5.08-2.56-3.35-3.52-6.41-2.88-9.09.2-.83-.27-1.68-1.09-1.94-.81-.28-1.69.12-2.03.9-1.31,3.04-3.81,5.26-6.86,6.11-2.32.64-4.9.53-7.19-.25-.88-.54-1.83-1.01-2.85-1.38-.79-.3-1.67.05-2.04.8-.38.75-.14,1.66.57,2.12.91.59,1.88,1.08,2.9,1.46,3.08,1.98,5.2,5.01,6.52,7.45,1.52,2.81,2.24,5.02,2.24,7.25,0,1.08-.17,2.16-.49,3.31-.24.87.27,1.78,1.15,2.02.15.04.3.06.44.06.72,0,1.39-.47,1.59-1.2,2.37-8.57,8.04-9.45,19.44-9.27.96.08,1.6-.65,1.66-1.52.07-.87-.55-1.64-1.42-1.75ZM31.14,38.38c-.47-1.99-1.31-3.78-2.22-5.46-.83-1.54-1.95-3.28-3.39-4.92,1.17-.05,2.33-.22,3.46-.54,2.3-.64,4.36-1.86,6.03-3.54.55,2.06,1.66,4.2,3.33,6.38,1.04,1.37,2.33,2.46,3.67,3.32-4.52.47-8.22,1.72-10.88,4.76Z"/>
    </g>
  </g>
</svg>