<?xml version="1.0" encoding="UTF-8"?>
<svg id="Layer_2" data-name="Layer 2" xmlns="http://www.w3.org/2000/svg" viewBox="0 0 64.87 59.43">
  <defs>
    <style>
      .cls-1 {
        fill: #a2d077;
      }

      .cls-2 {
        fill: #258842;
      }
    </style>
  </defs>
  <g id="Layer_1-2" data-name="Layer 1">
    <g>
      <path class="cls-2" d="M64.25,27.4c-1.62-7.95-6.42-15.7-12.42-20.36-1.02-.8-2.07-1.51-3.15-2.11-2.8-1.56-5.83-3-9.05-3.91C29.99-1.72,18.67.22,6.82,17.49c-8.94,13.04-9.09,23.98-.46,32.53,1.79,1.78,4.03,3.35,6.58,4.67,3.87,2.02,8.45,3.47,13.26,4.2h.01c2.32.35,4.7.54,7.08.54.99,0,1.97-.03,2.95-.1,5.06-.33,9.7-1.51,13.72-3.44,4.02-1.93,7.42-4.62,10.01-7.96,4.39-5.66,5.87-12.76,4.28-20.53ZM56.06,44.91c-4.3,5.55-11.45,8.92-20.14,9.49-10.02.66-20.73-2.59-26.08-7.89-4.33-4.29-8.93-11.67,1.05-26.22,8.06-11.75,15.29-15.45,21.82-15.45,4.89,0,9.4,2.08,13.56,4.4,6.14,3.43,11.54,11.3,13.14,19.15.9,4.4,1.05,10.84-3.35,16.52Z"/>
      <path class="cls-1" d="M59.41,28.39c-1.6-7.85-7-15.72-13.14-19.15-4.16-2.32-8.67-4.4-13.56-4.4-6.53,0-13.76,3.7-21.82,15.45-9.98,14.55-5.38,21.93-1.05,26.22,5.35,5.3,16.06,8.55,26.08,7.89,8.69-.57,15.84-3.94,20.14-9.49,4.4-5.68,4.25-12.12,3.35-16.52ZM18.09,38.88c-.12.03-.24.04-.35.04-.76,0-1.44-.53-1.61-1.3-.19-.89.37-1.76,1.26-1.96,4.49-.98,8.39-3.85,10.43-7.69,2.03-3.79,2.14-8.38.29-12.25-.39-.82-.04-1.8.78-2.2.83-.39,1.81-.03,2.2.78,2.29,4.82,2.15,10.51-.36,15.22-2.49,4.68-7.22,8.18-12.64,9.36ZM48.93,24.47c-4.96.21-9.66,2.58-11.96,6.04-2.28,3.43-2.78,7.38-1.45,11.44.25.77-.02,1.84-.74,2.22-.23.12-.49.18-.74.18-.52,0-1.03-.24-1.35-.67-.18-.23-.29-.49-.32-.76-1.6-5.05-.93-10.05,1.86-14.23,2.91-4.37,8.49-7.25,14.56-7.51.9-.09,1.67.66,1.71,1.57.04.91-.66,1.68-1.57,1.72Z"/>
      <path class="cls-2" d="M50.5,22.75c.04.91-.66,1.68-1.57,1.72-4.96.21-9.66,2.58-11.96,6.04-2.28,3.43-2.78,7.38-1.45,11.44.25.77-.02,1.84-.74,2.22-.23.12-.49.18-.74.18-.52,0-1.03-.24-1.35-.67-.18-.23-.29-.49-.32-.76-1.6-5.05-.93-10.05,1.86-14.23,2.91-4.37,8.49-7.25,14.56-7.51.9-.09,1.67.66,1.71,1.57Z"/>
      <path class="cls-2" d="M30.73,29.52c-2.49,4.68-7.22,8.18-12.64,9.36-.12.03-.24.04-.35.04-.76,0-1.44-.53-1.61-1.3-.19-.89.37-1.76,1.26-1.96,4.49-.98,8.39-3.85,10.43-7.69,2.03-3.79,2.14-8.38.29-12.25-.39-.82-.04-1.8.78-2.2.83-.39,1.81-.03,2.2.78,2.29,4.82,2.15,10.51-.36,15.22Z"/>
    </g>
  </g>
</svg>