<?xml version="1.0" encoding="UTF-8"?>
<svg id="Layer_2" data-name="Layer 2" xmlns="http://www.w3.org/2000/svg" viewBox="0 0 67.97 59.49">
  <defs>
    <style>
      .cls-1 {
        fill: #a2d077;
      }

      .cls-2 {
        fill: #258842;
      }
    </style>
  </defs>
  <g id="Layer_1-2" data-name="Layer 1">
    <g>
      <path class="cls-2" d="M67.44,30.52c-1.81-8.86-7.75-17.07-13.92-22.21-1.62-1.35-3.26-2.5-4.84-3.38-.1-.06-.2-.11-.3-.17C37.23-1.38,22.48-5.33,6.82,17.49c-8.94,13.04-9.09,23.99-.46,32.53.44.44.92.87,1.43,1.28,3.1,2.53,7.36,4.59,12.19,6.01h.01c4.77,1.41,10.09,2.18,15.43,2.18,1.17,0,2.34-.03,3.51-.11,5.46-.36,10.4-1.55,14.61-3.46,4.21-1.92,7.69-4.57,10.24-7.86,3.75-4.84,5.01-10.9,3.66-17.54ZM59.88,45.03c-4.23,5.45-11.78,8.8-21.28,9.42-11.29.75-23.37-2.6-28.76-7.94-4.33-4.28-8.93-11.66,1.05-26.22,8.06-11.75,15.29-15.44,21.82-15.44,4.89,0,9.39,2.07,13.56,4.4,6.45,3.6,14.36,12.63,16.33,22.26.29,1.42.43,2.79.43,4.11,0,3.55-1.05,6.7-3.15,9.41Z"/>
      <path class="cls-1" d="M62.6,31.51c-1.97-9.63-9.88-18.66-16.33-22.26-4.17-2.33-8.67-4.4-13.56-4.4-6.53,0-13.76,3.69-21.82,15.44-9.98,14.56-5.38,21.94-1.05,26.22,5.39,5.34,17.47,8.69,28.76,7.94,9.5-.62,17.05-3.97,21.28-9.42,2.1-2.71,3.15-5.86,3.15-9.41,0-1.32-.14-2.69-.43-4.11ZM18.95,38.62c-.14.03-.27.05-.41.05-.73,0-1.4-.5-1.59-1.25-.22-.88.31-1.77,1.19-2,4.79-1.21,8.97-4.18,11.48-8.15,2.49-3.94,3.26-8.74,2.1-13.18-.22-.88.3-1.78,1.18-2.01.88-.23,1.78.3,2.01,1.18,1.39,5.32.47,11.07-2.51,15.77-2.96,4.68-7.86,8.17-13.45,9.59ZM52.2,25.24c-.12.9-.96,1.5-1.84,1.42-5.25-.66-10.83,1.61-13.85,5.67-2.98,4.01-3.31,9.58-.84,13.87.46.79.19,1.8-.6,2.25-.26.15-.54.22-.82.22-.57,0-1.12-.29-1.43-.82-3.12-5.41-2.7-12.43,1.04-17.48,3.71-4.99,10.51-7.78,16.92-6.98.9.12,1.53.95,1.42,1.85Z"/>
      <path class="cls-2" d="M32.4,29.03c-2.96,4.68-7.86,8.17-13.45,9.59-.14.03-.27.05-.41.05-.73,0-1.4-.5-1.59-1.25-.22-.88.31-1.77,1.19-2,4.79-1.21,8.97-4.18,11.48-8.15,2.49-3.94,3.26-8.74,2.1-13.18-.22-.88.3-1.78,1.18-2.01.88-.23,1.78.3,2.01,1.18,1.39,5.32.47,11.07-2.51,15.77Z"/>
      <path class="cls-2" d="M52.2,25.24c-.12.9-.96,1.5-1.84,1.42-5.25-.66-10.83,1.61-13.85,5.67-2.98,4.01-3.31,9.58-.84,13.87.46.79.19,1.8-.6,2.25-.26.15-.54.22-.82.22-.57,0-1.12-.29-1.43-.82-3.12-5.41-2.7-12.43,1.04-17.48,3.71-4.99,10.51-7.78,16.92-6.98.9.12,1.53.95,1.42,1.85Z"/>
    </g>
  </g>
</svg>