<?xml version="1.0" encoding="UTF-8"?>
<svg id="Layer_2" data-name="Layer 2" xmlns="http://www.w3.org/2000/svg" viewBox="0 0 67.81 61.71">
  <defs>
    <style>
      .cls-1 {
        fill: #e4b3d3;
      }

      .cls-2 {
        fill: #ee222b;
      }
    </style>
  </defs>
  <g id="Layer_1-2" data-name="Layer 1">
    <g>
      <path class="cls-2" d="M60.06,13.95c-.94-1.34-1.91-2.53-2.89-3.54-1.42-1.47-2.91-2.91-4.49-4.23C44.22-.92,33.06-4.58,14.17,10.35-3.45,24.29-.87,36.31,2.24,42.23c1.47,2.8,3.94,5.57,7.11,8.1.01.01.02.01.03.02,1.55,1.25,3.28,2.44,5.14,3.55h.01c4.64,2.79,10.1,5.04,15.75,6.41,3.88.94,7.62,1.4,11.16,1.4,6.76,0,12.75-1.69,17.45-5.01,5.11-3.6,8.15-9.15,8.79-16.06.89-9.59-2.92-19.98-7.62-26.69ZM62.76,40.19c-.51,5.49-2.77,9.69-6.72,12.48-5.97,4.21-14.71,5.22-24.6,2.84-11.05-2.66-21.48-9.21-24.82-15.57-5.31-10.11,2.84-19.57,10.61-25.71,8.45-6.68,14.91-9.2,20.21-9.2,6.74,0,11.58,4.08,16.18,8.82,5.2,5.36,10.04,16.67,9.14,26.34Z"/>
      <path class="cls-1" d="M53.62,13.85c-4.6-4.74-9.44-8.82-16.18-8.82-5.3,0-11.76,2.52-20.21,9.2-7.77,6.14-15.92,15.6-10.61,25.71,3.34,6.36,13.77,12.91,24.82,15.57,9.89,2.38,18.63,1.37,24.6-2.84,3.95-2.79,6.21-6.99,6.72-12.48.9-9.67-3.94-20.98-9.14-26.34ZM43.02,18.93c-.39.82-1.38,1.17-2.2.78-5.43-2.59-12.81-1.25-16.78,3.05-3.91,4.23-4.26,11.11-.8,15.66.55.73.4,1.76-.32,2.31-.3.23-.65.34-.99.34-.5,0-.99-.23-1.32-.66-4.46-5.88-4.03-14.43,1.02-19.88,4.98-5.39,13.83-7.02,20.61-3.8.82.39,1.17,1.37.78,2.2Z"/>
      <path class="cls-2" d="M43.02,18.93c-.39.82-1.38,1.17-2.2.78-5.43-2.59-12.81-1.25-16.78,3.05-3.91,4.23-4.26,11.11-.8,15.66.55.73.4,1.76-.32,2.31-.3.23-.65.34-.99.34-.5,0-.99-.23-1.32-.66-4.46-5.88-4.03-14.43,1.02-19.88,4.98-5.39,13.83-7.02,20.61-3.8.82.39,1.17,1.37.78,2.2Z"/>
    </g>
  </g>
</svg>