<?xml version="1.0" encoding="UTF-8"?>
<svg id="Layer_2" data-name="Layer 2" xmlns="http://www.w3.org/2000/svg" viewBox="0 0 67.41 62.79">
  <defs>
    <style>
      .cls-1 {
        fill: #f8971d;
      }

      .cls-2 {
        fill: #fce36b;
      }
    </style>
  </defs>
  <g id="Layer_1-2" data-name="Layer 1">
    <g>
      <path class="cls-1" d="M66.18,24.82c-1.2-5.55-3.17-10.52-5.47-13.92-.05-.08-.1-.15-.15-.23-8.47-12.23-15.75-15.23-38.9-2.17C7.89,16.27-2.99,22.4.74,34.02c.75,2.34,2.12,4.81,3.97,7.28,1.97,2.64,4.49,5.28,7.38,7.77,4.7,4.04,10.39,7.66,16.29,10.16,4.38,1.85,10.01,3.56,15.85,3.56,3.73,0,7.55-.69,11.19-2.5,5.34-2.65,9.08-7.64,10.84-14.43,1.7-6.62,1.39-14.25-.08-21.04ZM61.47,44.62c-.7,2.72-1.74,5.03-3.12,6.91s-3.09,3.33-5.13,4.34c-5.96,2.95-14.1,2.54-22.92-1.19-12.68-5.36-22.78-15.68-24.85-22.17-2.28-7.08,3.62-11.23,18.64-19.71,9.99-5.63,16.31-7.85,20.75-7.85,5.75,0,8.33,3.73,11.66,8.54,4.57,6.6,7.66,20.69,4.97,31.13Z"/>
      <path class="cls-2" d="M56.5,13.49c-3.33-4.81-5.91-8.54-11.66-8.54-4.44,0-10.76,2.22-20.75,7.85C9.07,21.28,3.17,25.43,5.45,32.51c2.07,6.49,12.17,16.81,24.85,22.17,8.82,3.73,16.96,4.14,22.92,1.19,2.04-1.01,3.75-2.46,5.13-4.34s2.42-4.19,3.12-6.91c2.69-10.44-.4-24.53-4.97-31.13ZM47.09,16.62c-9.33.22-29.02,11.45-30.48,16.32-.21.71-.86,1.17-1.57,1.17-.16,0-.32-.02-.48-.06-.87-.27-1.36-1.18-1.1-2.05,2.11-7.07,24.1-18.45,33.56-18.67.85,0,1.66.7,1.68,1.61.02.91-.7,1.66-1.61,1.68Z"/>
      <path class="cls-1" d="M48.7,14.94c.02.91-.7,1.66-1.61,1.68-9.33.22-29.02,11.45-30.48,16.32-.21.71-.86,1.17-1.57,1.17-.16,0-.32-.02-.48-.06-.87-.27-1.36-1.18-1.1-2.05,2.11-7.07,24.1-18.45,33.56-18.67.85,0,1.66.7,1.68,1.61Z"/>
    </g>
  </g>
</svg>