<?xml version="1.0" encoding="UTF-8"?>
<svg id="Layer_2" data-name="Layer 2" xmlns="http://www.w3.org/2000/svg" viewBox="0 0 65.68 66.39">
  <defs>
    <style>
      .cls-1 {
        fill: #f8971d;
      }

      .cls-2 {
        fill: #fce36b;
      }
    </style>
  </defs>
  <g id="Layer_1-2" data-name="Layer 1">
    <g>
      <path class="cls-1" d="M65.41,18.35c-.11-.79-.24-1.52-.39-2.18C61.65,1.94,55.92-3.18,29.18,1.94,13.4,4.97.93,7.35.05,19.32c-.16,2.19.1,4.7.7,7.38,0,0,0,.01,0,.01.99,4.36,2.9,9.19,5.46,13.91,3.29,6.07,7.63,11.96,12.43,16.46,6.54,6.13,13.42,9.31,20.07,9.31.95,0,1.9-.07,2.84-.2,5.68-.79,10.64-4.24,14.76-10.26,5.35-7.83,8.23-18.54,9.08-27.43.38-3.86.37-7.37.01-10.15ZM52.24,53.14c-1.65,2.41-3.43,4.3-5.33,5.66-1.89,1.36-3.91,2.2-6.03,2.5-7.58,1.04-14.42-3.68-18.85-7.82C11.57,43.67,4.4,27.55,4.97,19.68c.58-7.82,9.02-9.8,25.14-12.89,6.67-1.27,11.73-1.85,15.63-1.85,11.54,0,12.75,5.11,14.47,12.37,1.73,7.32-.51,24.93-7.97,35.83Z"/>
      <path class="cls-2" d="M60.21,17.31c-1.72-7.26-2.93-12.37-14.47-12.37-3.9,0-8.96.58-15.63,1.85C13.99,9.88,5.55,11.86,4.97,19.68c-.57,7.87,6.6,23.99,17.06,33.8,4.43,4.14,11.27,8.86,18.85,7.82,2.12-.3,4.14-1.14,6.03-2.5,1.9-1.36,3.68-3.25,5.33-5.66,7.46-10.9,9.7-28.51,7.97-35.83ZM48.91,16.31c-.16-.01-16.74-1.12-32.41,6.8-.24.12-.49.18-.75.18-.6,0-1.18-.33-1.47-.9-.41-.81-.08-1.81.73-2.22,16.52-8.35,33.43-7.2,34.14-7.15.91.07,1.59.86,1.52,1.77-.06.9-.84,1.55-1.76,1.52Z"/>
      <path class="cls-1" d="M50.67,14.79c-.06.9-.84,1.55-1.76,1.52-.16-.01-16.74-1.12-32.41,6.8-.24.12-.49.18-.75.18-.6,0-1.18-.33-1.47-.9-.41-.81-.08-1.81.73-2.22,16.52-8.35,33.43-7.2,34.14-7.15.91.07,1.59.86,1.52,1.77Z"/>
    </g>
  </g>
</svg>