<?xml version="1.0" encoding="UTF-8"?>
<svg id="Layer_2" data-name="Layer 2" xmlns="http://www.w3.org/2000/svg" viewBox="0 0 65.67 66.39">
  <defs>
    <style>
      .cls-1 {
        fill: #f8971d;
      }

      .cls-2 {
        fill: #fce36b;
      }
    </style>
  </defs>
  <g id="Layer_1-2" data-name="Layer 1">
    <g>
      <path class="cls-1" d="M65.63,19.32c-.88-11.97-13.34-14.35-29.13-17.38C9.76-3.18,4.03,1.94.67,16.17c-.16.66-.29,1.39-.39,2.17H.28c-.36,2.78-.37,6.29-.01,10.14v.02c.86,8.89,3.75,19.61,9.1,27.43,2.06,3.01,4.32,5.38,6.79,7.09,2.47,1.72,5.13,2.78,7.96,3.17.94.13,1.89.2,2.84.2,6.65,0,13.53-3.18,20.07-9.31,4.8-4.5,9.15-10.39,12.43-16.46,2.56-4.73,4.48-9.56,5.47-13.92.6-2.68.86-5.19.7-7.38ZM43.66,53.48c-4.43,4.14-11.28,8.86-18.86,7.82-4.24-.6-8.06-3.34-11.36-8.16C5.98,42.24,3.74,24.63,5.47,17.31,7.77,7.6,9.16,1.73,35.57,6.79c16.12,3.09,24.56,5.07,25.14,12.89.58,7.87-6.59,23.99-17.05,33.8Z"/>
      <path class="cls-2" d="M60.71,19.68c-.58-7.82-9.02-9.8-25.14-12.89C9.16,1.73,7.77,7.6,5.47,17.31c-1.73,7.32.51,24.93,7.97,35.83,3.3,4.82,7.12,7.56,11.36,8.16,7.58,1.04,14.43-3.68,18.86-7.82,10.46-9.81,17.63-25.93,17.05-33.8ZM51.4,22.39c-.29.57-.87.9-1.47.9-.25,0-.5-.06-.74-.18-15.68-7.93-32.25-6.81-32.42-6.8-.95.02-1.69-.62-1.76-1.52-.07-.91.61-1.7,1.52-1.77.71-.06,17.62-1.2,34.14,7.15.82.41,1.14,1.41.73,2.22Z"/>
      <path class="cls-1" d="M51.4,22.39c-.29.57-.87.9-1.47.9-.25,0-.5-.06-.74-.18-15.68-7.93-32.25-6.81-32.42-6.8-.95.02-1.69-.62-1.76-1.52-.07-.91.61-1.7,1.52-1.77.71-.06,17.62-1.2,34.14,7.15.82.41,1.14,1.41.73,2.22Z"/>
    </g>
  </g>
</svg>